<svg xmlns="http://www.w3.org/2000/svg" width="256" height="256" viewBox="0 0 100 100"><rect width="100" height="100" rx="20" fill="#505357"></rect><path fill="#ebead8" d="M16.23 70.21L9.44 70.21L9.44 29.35L16.23 29.35L16.23 45.05Q17.88 43.48 19.86 42.52Q21.84 41.56 24.51 41.56L24.51 41.56Q26.82 41.56 28.61 42.34Q30.39 43.13 31.59 44.54Q32.78 45.96 33.40 47.92Q34.02 49.89 34.02 52.26L34.02 52.26L34.02 70.21L27.23 70.21L27.23 52.26Q27.23 49.67 26.03 48.25Q24.84 46.84 22.45 46.84L22.45 46.84Q20.68 46.84 19.14 47.64Q17.61 48.43 16.23 49.81L16.23 49.81L16.23 70.21ZM40.13 42.00L46.92 42.00L46.92 59.93Q46.92 62.51 48.12 63.93Q49.31 65.34 51.71 65.34L51.71 65.34Q53.47 65.34 55.01 64.56Q56.55 63.78 57.92 62.40L57.92 62.40L57.92 42.00L64.71 42.00L64.71 70.21L60.56 70.21Q59.24 70.21 58.83 68.98L58.83 68.98L58.36 66.72Q57.48 67.60 56.55 68.33Q55.61 69.06 54.55 69.57Q53.49 70.08 52.27 70.36Q51.05 70.65 49.64 70.65L49.64 70.65Q47.33 70.65 45.56 69.87Q43.79 69.09 42.58 67.66Q41.37 66.23 40.75 64.26Q40.13 62.29 40.13 59.93L40.13 59.93L40.13 42.00ZM51.29 34.68L51.29 34.68Q51.29 35.45 50.99 36.13Q50.69 36.80 50.15 37.30Q49.62 37.79 48.91 38.08Q48.21 38.37 47.44 38.37L47.44 38.37Q46.70 38.37 46.03 38.08Q45.35 37.79 44.83 37.30Q44.31 36.80 44.01 36.13Q43.70 35.45 43.70 34.68L43.70 34.68Q43.70 33.89 44.01 33.18Q44.31 32.48 44.83 31.96Q45.35 31.44 46.03 31.14Q46.70 30.83 47.44 30.83L47.44 30.83Q48.21 30.83 48.91 31.14Q49.62 31.44 50.15 31.96Q50.69 32.48 50.99 33.18Q51.29 33.89 51.29 34.68ZM61.58 34.68L61.58 34.68Q61.58 35.45 61.28 36.13Q60.97 36.80 60.45 37.30Q59.93 37.79 59.23 38.08Q58.53 38.37 57.76 38.37L57.76 38.37Q56.98 38.37 56.30 38.08Q55.61 37.79 55.10 37.30Q54.59 36.80 54.29 36.13Q53.99 35.45 53.99 34.68L53.99 34.68Q53.99 33.89 54.29 33.18Q54.59 32.48 55.10 31.96Q55.61 31.44 56.30 31.14Q56.98 30.83 57.76 30.83L57.76 30.83Q58.53 30.83 59.23 31.14Q59.93 31.44 60.45 31.96Q60.97 32.48 61.28 33.18Q61.58 33.89 61.58 34.68ZM90.26 45.05L88.72 47.50Q88.44 47.94 88.14 48.12Q87.84 48.30 87.37 48.30L87.37 48.30Q86.88 48.30 86.31 48.02Q85.75 47.75 85.01 47.40Q84.27 47.06 83.32 46.78Q82.37 46.51 81.08 46.51L81.08 46.51Q79.07 46.51 77.91 47.36Q76.76 48.21 76.76 49.59L76.76 49.59Q76.76 50.50 77.35 51.11Q77.94 51.73 78.92 52.20Q79.89 52.67 81.13 53.04Q82.37 53.41 83.66 53.85Q84.95 54.29 86.19 54.85Q87.43 55.42 88.40 56.28Q89.38 57.15 89.97 58.36Q90.56 59.57 90.56 61.28L90.56 61.28Q90.56 63.31 89.82 65.03Q89.08 66.75 87.65 68.00Q86.22 69.25 84.11 69.95Q82.01 70.65 79.29 70.65L79.29 70.65Q77.83 70.65 76.44 70.39Q75.05 70.13 73.77 69.66Q72.50 69.20 71.41 68.56Q70.32 67.93 69.50 67.19L69.50 67.19L71.06 64.60Q71.37 64.14 71.78 63.89Q72.19 63.64 72.83 63.64L72.83 63.64Q73.46 63.64 74.02 64.00Q74.59 64.36 75.33 64.77Q76.07 65.18 77.07 65.54Q78.08 65.90 79.62 65.90L79.62 65.90Q80.83 65.90 81.69 65.61Q82.56 65.32 83.12 64.85Q83.69 64.38 83.95 63.76Q84.21 63.15 84.21 62.49L84.21 62.49Q84.21 61.50 83.62 60.86Q83.03 60.23 82.05 59.76Q81.08 59.30 79.82 58.92Q78.57 58.55 77.27 58.11Q75.96 57.67 74.71 57.08Q73.46 56.49 72.48 55.58Q71.50 54.68 70.91 53.36Q70.32 52.04 70.32 50.17L70.32 50.17Q70.32 48.43 71.01 46.87Q71.70 45.30 73.03 44.13Q74.36 42.96 76.36 42.26Q78.35 41.56 80.97 41.56L80.97 41.56Q83.88 41.56 86.27 42.52Q88.67 43.48 90.26 45.05L90.26 45.05Z"></path></svg>